<mxfile host="app.diagrams.net" modified="2023-08-10T08:55:35.111Z" agent="Mozilla/5.0 (Windows NT 10.0; Win64; x64) AppleWebKit/537.36 (KHTML, like Gecko) Chrome/115.0.0.0 Safari/537.36 Edg/115.0.1901.200" etag="_kIo6cOZNWzEh2Bm11qa" version="21.6.7" type="device">
  <diagram name="Page-1" id="IT3sIsir4h7vHgGvgKSX">
    <mxGraphModel dx="911" dy="427" grid="1" gridSize="10" guides="1" tooltips="1" connect="1" arrows="1" fold="1" page="1" pageScale="1" pageWidth="827" pageHeight="1169" math="0" shadow="0">
      <root>
        <mxCell id="0" />
        <mxCell id="1" parent="0" />
        <mxCell id="IbhYcVioZli6bn5WBCzx-1" value="Doctor" style="swimlane;fontStyle=1;align=center;verticalAlign=top;childLayout=stackLayout;horizontal=1;startSize=26;horizontalStack=0;resizeParent=1;resizeParentMax=0;resizeLast=0;collapsible=1;marginBottom=0;whiteSpace=wrap;html=1;" parent="1" vertex="1">
          <mxGeometry x="10" y="260" width="170" height="114" as="geometry" />
        </mxCell>
        <mxCell id="IbhYcVioZli6bn5WBCzx-2" value="- doc_id: integer&lt;br&gt;- doc_firstname: varchar(45)&lt;br&gt;- doc_lastname: varchar(45)" style="text;strokeColor=none;fillColor=none;align=left;verticalAlign=top;spacingLeft=4;spacingRight=4;overflow=hidden;rotatable=0;points=[[0,0.5],[1,0.5]];portConstraint=eastwest;whiteSpace=wrap;html=1;" parent="IbhYcVioZli6bn5WBCzx-1" vertex="1">
          <mxGeometry y="26" width="170" height="54" as="geometry" />
        </mxCell>
        <mxCell id="IbhYcVioZli6bn5WBCzx-3" value="" style="line;strokeWidth=1;fillColor=none;align=left;verticalAlign=middle;spacingTop=-1;spacingLeft=3;spacingRight=3;rotatable=0;labelPosition=right;points=[];portConstraint=eastwest;strokeColor=inherit;" parent="IbhYcVioZli6bn5WBCzx-1" vertex="1">
          <mxGeometry y="80" width="170" height="8" as="geometry" />
        </mxCell>
        <mxCell id="IbhYcVioZli6bn5WBCzx-4" value="+ method(type): type" style="text;strokeColor=none;fillColor=none;align=left;verticalAlign=top;spacingLeft=4;spacingRight=4;overflow=hidden;rotatable=0;points=[[0,0.5],[1,0.5]];portConstraint=eastwest;whiteSpace=wrap;html=1;" parent="IbhYcVioZli6bn5WBCzx-1" vertex="1">
          <mxGeometry y="88" width="170" height="26" as="geometry" />
        </mxCell>
        <mxCell id="IbhYcVioZli6bn5WBCzx-5" value="Appointment" style="swimlane;fontStyle=1;align=center;verticalAlign=top;childLayout=stackLayout;horizontal=1;startSize=26;horizontalStack=0;resizeParent=1;resizeParentMax=0;resizeLast=0;collapsible=1;marginBottom=0;whiteSpace=wrap;html=1;" parent="1" vertex="1">
          <mxGeometry x="322" y="260" width="180" height="194" as="geometry" />
        </mxCell>
        <mxCell id="IbhYcVioZli6bn5WBCzx-6" value="- app_id: integer&lt;br&gt;- doc_id: integer&lt;br&gt;- pat_id: integer&lt;br&gt;- bill_id: integer&lt;br&gt;- app_date: varchar(45)&lt;br&gt;- app_time: varchar(45)&lt;br&gt;- app_duration: integer&lt;br&gt;- app_reason: varchar(45)" style="text;strokeColor=none;fillColor=none;align=left;verticalAlign=top;spacingLeft=4;spacingRight=4;overflow=hidden;rotatable=0;points=[[0,0.5],[1,0.5]];portConstraint=eastwest;whiteSpace=wrap;html=1;" parent="IbhYcVioZli6bn5WBCzx-5" vertex="1">
          <mxGeometry y="26" width="180" height="134" as="geometry" />
        </mxCell>
        <mxCell id="IbhYcVioZli6bn5WBCzx-7" value="" style="line;strokeWidth=1;fillColor=none;align=left;verticalAlign=middle;spacingTop=-1;spacingLeft=3;spacingRight=3;rotatable=0;labelPosition=right;points=[];portConstraint=eastwest;strokeColor=inherit;" parent="IbhYcVioZli6bn5WBCzx-5" vertex="1">
          <mxGeometry y="160" width="180" height="8" as="geometry" />
        </mxCell>
        <mxCell id="IbhYcVioZli6bn5WBCzx-8" value="+ method(type): type" style="text;strokeColor=none;fillColor=none;align=left;verticalAlign=top;spacingLeft=4;spacingRight=4;overflow=hidden;rotatable=0;points=[[0,0.5],[1,0.5]];portConstraint=eastwest;whiteSpace=wrap;html=1;" parent="IbhYcVioZli6bn5WBCzx-5" vertex="1">
          <mxGeometry y="168" width="180" height="26" as="geometry" />
        </mxCell>
        <mxCell id="IbhYcVioZli6bn5WBCzx-9" value="Patient" style="swimlane;fontStyle=1;align=center;verticalAlign=top;childLayout=stackLayout;horizontal=1;startSize=26;horizontalStack=0;resizeParent=1;resizeParentMax=0;resizeLast=0;collapsible=1;marginBottom=0;whiteSpace=wrap;html=1;" parent="1" vertex="1">
          <mxGeometry x="610" y="260" width="160" height="174" as="geometry" />
        </mxCell>
        <mxCell id="IbhYcVioZli6bn5WBCzx-10" value="- pat_id: integer&lt;br&gt;- pat_firstname: varchar(45)&lt;br&gt;- pat_lastname: varchar(45)&lt;br&gt;- pat_address: varchar(45)&lt;br&gt;- pat_city: varchar(45)&lt;br&gt;- pat_state: varchar(45)&lt;br&gt;- ins_id: integer" style="text;strokeColor=none;fillColor=none;align=left;verticalAlign=top;spacingLeft=4;spacingRight=4;overflow=hidden;rotatable=0;points=[[0,0.5],[1,0.5]];portConstraint=eastwest;whiteSpace=wrap;html=1;" parent="IbhYcVioZli6bn5WBCzx-9" vertex="1">
          <mxGeometry y="26" width="160" height="114" as="geometry" />
        </mxCell>
        <mxCell id="IbhYcVioZli6bn5WBCzx-11" value="" style="line;strokeWidth=1;fillColor=none;align=left;verticalAlign=middle;spacingTop=-1;spacingLeft=3;spacingRight=3;rotatable=0;labelPosition=right;points=[];portConstraint=eastwest;strokeColor=inherit;" parent="IbhYcVioZli6bn5WBCzx-9" vertex="1">
          <mxGeometry y="140" width="160" height="8" as="geometry" />
        </mxCell>
        <mxCell id="IbhYcVioZli6bn5WBCzx-12" value="+ method(type): type" style="text;strokeColor=none;fillColor=none;align=left;verticalAlign=top;spacingLeft=4;spacingRight=4;overflow=hidden;rotatable=0;points=[[0,0.5],[1,0.5]];portConstraint=eastwest;whiteSpace=wrap;html=1;" parent="IbhYcVioZli6bn5WBCzx-9" vertex="1">
          <mxGeometry y="148" width="160" height="26" as="geometry" />
        </mxCell>
        <mxCell id="IbhYcVioZli6bn5WBCzx-13" value="" style="edgeStyle=entityRelationEdgeStyle;fontSize=12;html=1;endArrow=ERzeroToMany;startArrow=ERmandOne;rounded=0;exitX=1;exitY=0.163;exitDx=0;exitDy=0;exitPerimeter=0;entryX=0.006;entryY=0.962;entryDx=0;entryDy=0;entryPerimeter=0;" parent="1" source="IbhYcVioZli6bn5WBCzx-1" edge="1">
          <mxGeometry width="100" height="100" relative="1" as="geometry">
            <mxPoint x="184" y="278.98800000000006" as="sourcePoint" />
            <mxPoint x="322.96000000000004" y="277.01199999999994" as="targetPoint" />
          </mxGeometry>
        </mxCell>
        <mxCell id="IbhYcVioZli6bn5WBCzx-14" value="" style="edgeStyle=entityRelationEdgeStyle;fontSize=12;html=1;endArrow=ERoneToMany;startArrow=ERmandOne;rounded=0;entryX=1;entryY=0.25;entryDx=0;entryDy=0;exitX=-0.012;exitY=0.038;exitDx=0;exitDy=0;exitPerimeter=0;" parent="1" source="IbhYcVioZli6bn5WBCzx-10" target="IbhYcVioZli6bn5WBCzx-5" edge="1">
          <mxGeometry width="100" height="100" relative="1" as="geometry">
            <mxPoint x="560" y="300" as="sourcePoint" />
            <mxPoint x="400" y="200" as="targetPoint" />
          </mxGeometry>
        </mxCell>
        <mxCell id="IbhYcVioZli6bn5WBCzx-15" value="schedule" style="text;html=1;align=center;verticalAlign=middle;resizable=0;points=[];autosize=1;strokeColor=none;fillColor=none;" parent="1" vertex="1">
          <mxGeometry x="195" y="238" width="70" height="30" as="geometry" />
        </mxCell>
        <mxCell id="IbhYcVioZli6bn5WBCzx-16" value="schedule" style="text;html=1;align=center;verticalAlign=middle;resizable=0;points=[];autosize=1;strokeColor=none;fillColor=none;" parent="1" vertex="1">
          <mxGeometry x="495" y="248" width="70" height="30" as="geometry" />
        </mxCell>
        <mxCell id="IbhYcVioZli6bn5WBCzx-21" value="" style="edgeStyle=entityRelationEdgeStyle;fontSize=12;html=1;endArrow=ERmandOne;startArrow=ERmandOne;rounded=0;exitX=1;exitY=0.25;exitDx=0;exitDy=0;" parent="1" target="IbhYcVioZli6bn5WBCzx-5" edge="1">
          <mxGeometry width="100" height="100" relative="1" as="geometry">
            <mxPoint x="260" y="497" as="sourcePoint" />
            <mxPoint x="460" y="300" as="targetPoint" />
          </mxGeometry>
        </mxCell>
        <mxCell id="IbhYcVioZli6bn5WBCzx-22" value="generate" style="text;html=1;align=center;verticalAlign=middle;resizable=0;points=[];autosize=1;strokeColor=none;fillColor=none;" parent="1" vertex="1">
          <mxGeometry x="220" y="390" width="70" height="30" as="geometry" />
        </mxCell>
        <mxCell id="IbhYcVioZli6bn5WBCzx-23" value="Payment" style="swimlane;fontStyle=1;align=center;verticalAlign=top;childLayout=stackLayout;horizontal=1;startSize=26;horizontalStack=0;resizeParent=1;resizeParentMax=0;resizeLast=0;collapsible=1;marginBottom=0;whiteSpace=wrap;html=1;" parent="1" vertex="1">
          <mxGeometry x="610" y="496" width="160" height="194" as="geometry" />
        </mxCell>
        <mxCell id="IbhYcVioZli6bn5WBCzx-24" value="- pay_id: integer&lt;br&gt;- pay_amount: integer&lt;br&gt;- pay_date: varchar(45)&lt;br&gt;- pay_method: varchar(45)&lt;br&gt;- pat_id: integer&lt;br&gt;- bill_id: integer&lt;br&gt;- ins_id: integer" style="text;strokeColor=none;fillColor=none;align=left;verticalAlign=top;spacingLeft=4;spacingRight=4;overflow=hidden;rotatable=0;points=[[0,0.5],[1,0.5]];portConstraint=eastwest;whiteSpace=wrap;html=1;" parent="IbhYcVioZli6bn5WBCzx-23" vertex="1">
          <mxGeometry y="26" width="160" height="134" as="geometry" />
        </mxCell>
        <mxCell id="IbhYcVioZli6bn5WBCzx-25" value="" style="line;strokeWidth=1;fillColor=none;align=left;verticalAlign=middle;spacingTop=-1;spacingLeft=3;spacingRight=3;rotatable=0;labelPosition=right;points=[];portConstraint=eastwest;strokeColor=inherit;" parent="IbhYcVioZli6bn5WBCzx-23" vertex="1">
          <mxGeometry y="160" width="160" height="8" as="geometry" />
        </mxCell>
        <mxCell id="IbhYcVioZli6bn5WBCzx-26" value="+ method(type): type" style="text;strokeColor=none;fillColor=none;align=left;verticalAlign=top;spacingLeft=4;spacingRight=4;overflow=hidden;rotatable=0;points=[[0,0.5],[1,0.5]];portConstraint=eastwest;whiteSpace=wrap;html=1;" parent="IbhYcVioZli6bn5WBCzx-23" vertex="1">
          <mxGeometry y="168" width="160" height="26" as="geometry" />
        </mxCell>
        <mxCell id="IbhYcVioZli6bn5WBCzx-27" value="" style="edgeStyle=entityRelationEdgeStyle;fontSize=12;html=1;endArrow=ERzeroToMany;startArrow=ERmandOne;rounded=0;entryX=0.006;entryY=0.962;entryDx=0;entryDy=0;entryPerimeter=0;exitX=1;exitY=0.5;exitDx=0;exitDy=0;" parent="1" edge="1">
          <mxGeometry width="100" height="100" relative="1" as="geometry">
            <mxPoint x="260" y="610" as="sourcePoint" />
            <mxPoint x="610" y="514.502" as="targetPoint" />
          </mxGeometry>
        </mxCell>
        <mxCell id="IbhYcVioZli6bn5WBCzx-28" value="paid off" style="text;html=1;align=center;verticalAlign=middle;resizable=0;points=[];autosize=1;strokeColor=none;fillColor=none;" parent="1" vertex="1">
          <mxGeometry x="490" y="500" width="60" height="30" as="geometry" />
        </mxCell>
        <mxCell id="IbhYcVioZli6bn5WBCzx-29" value="" style="edgeStyle=entityRelationEdgeStyle;fontSize=12;html=1;endArrow=ERoneToMany;startArrow=ERmandOne;rounded=0;exitX=1;exitY=0.5;exitDx=0;exitDy=0;" parent="1" source="IbhYcVioZli6bn5WBCzx-12" target="IbhYcVioZli6bn5WBCzx-24" edge="1">
          <mxGeometry width="100" height="100" relative="1" as="geometry">
            <mxPoint x="706" y="405.5" as="sourcePoint" />
            <mxPoint x="580" y="400.5" as="targetPoint" />
          </mxGeometry>
        </mxCell>
        <mxCell id="IbhYcVioZli6bn5WBCzx-30" value="make" style="text;html=1;align=center;verticalAlign=middle;resizable=0;points=[];autosize=1;strokeColor=none;fillColor=none;" parent="1" vertex="1">
          <mxGeometry x="756" y="434" width="50" height="30" as="geometry" />
        </mxCell>
        <mxCell id="IbhYcVioZli6bn5WBCzx-31" value="Insurance" style="swimlane;fontStyle=1;align=center;verticalAlign=top;childLayout=stackLayout;horizontal=1;startSize=26;horizontalStack=0;resizeParent=1;resizeParentMax=0;resizeLast=0;collapsible=1;marginBottom=0;whiteSpace=wrap;html=1;" parent="1" vertex="1">
          <mxGeometry x="280" y="730" width="200" height="164" as="geometry" />
        </mxCell>
        <mxCell id="IbhYcVioZli6bn5WBCzx-32" value="- ins_id: integer&lt;br&gt;- ins_benefitcontract: &lt;br&gt;varchar(45)&lt;br&gt;- ins_phonenumber:varchar(45)&lt;br&gt;- ins_claimaddress: varchar(45)" style="text;strokeColor=none;fillColor=none;align=left;verticalAlign=top;spacingLeft=4;spacingRight=4;overflow=hidden;rotatable=0;points=[[0,0.5],[1,0.5]];portConstraint=eastwest;whiteSpace=wrap;html=1;" parent="IbhYcVioZli6bn5WBCzx-31" vertex="1">
          <mxGeometry y="26" width="200" height="104" as="geometry" />
        </mxCell>
        <mxCell id="IbhYcVioZli6bn5WBCzx-33" value="" style="line;strokeWidth=1;fillColor=none;align=left;verticalAlign=middle;spacingTop=-1;spacingLeft=3;spacingRight=3;rotatable=0;labelPosition=right;points=[];portConstraint=eastwest;strokeColor=inherit;" parent="IbhYcVioZli6bn5WBCzx-31" vertex="1">
          <mxGeometry y="130" width="200" height="8" as="geometry" />
        </mxCell>
        <mxCell id="IbhYcVioZli6bn5WBCzx-34" value="+ method(type): type" style="text;strokeColor=none;fillColor=none;align=left;verticalAlign=top;spacingLeft=4;spacingRight=4;overflow=hidden;rotatable=0;points=[[0,0.5],[1,0.5]];portConstraint=eastwest;whiteSpace=wrap;html=1;" parent="IbhYcVioZli6bn5WBCzx-31" vertex="1">
          <mxGeometry y="138" width="200" height="26" as="geometry" />
        </mxCell>
        <mxCell id="IbhYcVioZli6bn5WBCzx-35" value="" style="edgeStyle=entityRelationEdgeStyle;fontSize=12;html=1;endArrow=ERoneToMany;startArrow=ERzeroToOne;rounded=0;exitX=1;exitY=0.101;exitDx=0;exitDy=0;exitPerimeter=0;entryX=0;entryY=1;entryDx=0;entryDy=0;entryPerimeter=0;" parent="1" source="IbhYcVioZli6bn5WBCzx-31" target="IbhYcVioZli6bn5WBCzx-10" edge="1">
          <mxGeometry width="100" height="100" relative="1" as="geometry">
            <mxPoint x="505.3800000000001" y="865.8899999999999" as="sourcePoint" />
            <mxPoint x="565" y="390.00000000000006" as="targetPoint" />
          </mxGeometry>
        </mxCell>
        <mxCell id="IbhYcVioZli6bn5WBCzx-36" value="have" style="text;html=1;align=center;verticalAlign=middle;resizable=0;points=[];autosize=1;strokeColor=none;fillColor=none;" parent="1" vertex="1">
          <mxGeometry x="495" y="585" width="50" height="30" as="geometry" />
        </mxCell>
        <mxCell id="IbhYcVioZli6bn5WBCzx-37" value="" style="edgeStyle=entityRelationEdgeStyle;fontSize=12;html=1;endArrow=ERoneToMany;startArrow=ERmandOne;rounded=0;entryX=0;entryY=0.5;entryDx=0;entryDy=0;exitX=1.01;exitY=0.863;exitDx=0;exitDy=0;exitPerimeter=0;" parent="1" source="IbhYcVioZli6bn5WBCzx-32" target="IbhYcVioZli6bn5WBCzx-24" edge="1">
          <mxGeometry width="100" height="100" relative="1" as="geometry">
            <mxPoint x="528" y="850" as="sourcePoint" />
            <mxPoint x="594" y="566.77" as="targetPoint" />
            <Array as="points">
              <mxPoint x="558" y="810" />
              <mxPoint x="548" y="700" />
              <mxPoint x="538" y="710" />
              <mxPoint x="548" y="800" />
              <mxPoint x="548" y="800" />
              <mxPoint x="558" y="800" />
            </Array>
          </mxGeometry>
        </mxCell>
        <mxCell id="IbhYcVioZli6bn5WBCzx-38" value="make" style="text;html=1;align=center;verticalAlign=middle;resizable=0;points=[];autosize=1;strokeColor=none;fillColor=none;" parent="1" vertex="1">
          <mxGeometry x="540" y="700" width="50" height="30" as="geometry" />
        </mxCell>
        <mxCell id="VZvAfJFeSylGiQv03JuG-2" value="BIll" style="swimlane;fontStyle=1;align=center;verticalAlign=top;childLayout=stackLayout;horizontal=1;startSize=26;horizontalStack=0;resizeParent=1;resizeParentMax=0;resizeLast=0;collapsible=1;marginBottom=0;whiteSpace=wrap;html=1;" parent="1" vertex="1">
          <mxGeometry x="79" y="480" width="180" height="184" as="geometry" />
        </mxCell>
        <mxCell id="VZvAfJFeSylGiQv03JuG-3" value="- bill_id: integer&lt;br&gt;- bill_amountinsured: integer&lt;br&gt;- bill_amountnotinsured: integer&lt;br&gt;- bill_datesent: varchar(45)&lt;br&gt;- bill_status: varchar(45)" style="text;strokeColor=none;fillColor=none;align=left;verticalAlign=top;spacingLeft=4;spacingRight=4;overflow=hidden;rotatable=0;points=[[0,0.5],[1,0.5]];portConstraint=eastwest;whiteSpace=wrap;html=1;" parent="VZvAfJFeSylGiQv03JuG-2" vertex="1">
          <mxGeometry y="26" width="180" height="124" as="geometry" />
        </mxCell>
        <mxCell id="VZvAfJFeSylGiQv03JuG-4" value="" style="line;strokeWidth=1;fillColor=none;align=left;verticalAlign=middle;spacingTop=-1;spacingLeft=3;spacingRight=3;rotatable=0;labelPosition=right;points=[];portConstraint=eastwest;strokeColor=inherit;" parent="VZvAfJFeSylGiQv03JuG-2" vertex="1">
          <mxGeometry y="150" width="180" height="8" as="geometry" />
        </mxCell>
        <mxCell id="VZvAfJFeSylGiQv03JuG-5" value="+ method(type): type" style="text;strokeColor=none;fillColor=none;align=left;verticalAlign=top;spacingLeft=4;spacingRight=4;overflow=hidden;rotatable=0;points=[[0,0.5],[1,0.5]];portConstraint=eastwest;whiteSpace=wrap;html=1;" parent="VZvAfJFeSylGiQv03JuG-2" vertex="1">
          <mxGeometry y="158" width="180" height="26" as="geometry" />
        </mxCell>
      </root>
    </mxGraphModel>
  </diagram>
</mxfile>
